<svg xmlns="http://www.w3.org/2000/svg" viewBox="0 0 48 48" fill="none">
  <path d="M44.5 20H24v8.5h11.8C34.7 33.9 30.1 37 24 37c-7.2 0-13-5.8-13-13s5.8-13 13-13c3.1 0 5.9 1.1 8.1 2.9l6.4-6.4C34.6 5.1 29.6 3 24 3 12.4 3 3 12.4 3 24s9.4 21 21 21c10.5 0 20-7.5 20-21 0-1.3-.2-2.7-.5-4z" fill="#FBC02D"/>
  <path d="M6.3 14.7l7 5.1C15.1 16.2 19.2 13 24 13c3.1 0 5.9 1.1 8.1 2.9l6.4-6.4C34.6 5.1 29.6 3 24 3 16.3 3 9.7 7.9 6.3 14.7z" fill="#E53935"/>
  <path d="M24 45c5.5 0 10.5-1.9 14.3-5.1l-6.6-5.6C29.5 36.1 26.9 37 24 37c-6.1 0-10.7-3.1-11.8-7.5l-7 5.4C8.7 41.7 15.8 45 24 45z" fill="#4CAF50"/>
  <path d="M44.5 20H24v8.5h11.8c-.6 2.2-2 4.1-3.8 5.4l6.6 5.6C42.4 36.2 45 30.6 45 24c0-1.3-.2-2.7-.5-4z" fill="#1565C0"/>
</svg>
