<svg xmlns="http://www.w3.org/2000/svg" viewBox="0 0 60 38" fill="none">
  <defs>
    <linearGradient id="metaGrad" x1="0%" y1="0%" x2="100%" y2="0%">
      <stop offset="0%" stop-color="#0866FF"/>
      <stop offset="100%" stop-color="#0194F3"/>
    </linearGradient>
  </defs>
  <!-- Meta infinity symbol -->
  <path d="M9 19C9 13.477 11.686 9 15.5 9C18.157 9 20.371 10.786 22 14C22.857 15.714 23.571 17.714 24 19C24.429 17.714 25.143 15.714 26 14C27.629 10.786 29.843 9 32.5 9C36.314 9 39 13.477 39 19C39 24.523 36.314 29 32.5 29C29.843 29 27.629 27.214 26 24C25.143 22.286 24.429 20.286 24 19C23.571 20.286 22.857 22.286 22 24C20.371 27.214 18.157 29 15.5 29C11.686 29 9 24.523 9 19Z" fill="url(#metaGrad)"/>
</svg>
