<svg xmlns="http://www.w3.org/2000/svg" viewBox="0 0 48 48" fill="none">
  <!-- shadow cyan -->
  <path d="M20.5 4.5h5.8v20.1a5.4 5.4 0 005.4 5.4 5.4 5.4 0 005.4-5.4v-3a13.7 13.7 0 003.9.6V16a9 9 0 01-4.2-1.1V28.5a11.2 11.2 0 01-11.2 11.2A11.2 11.2 0 0114.4 28.5a11.2 11.2 0 019.9-11.1v6.1a5.4 5.4 0 00-4.1 5.1 5.4 5.4 0 005.4 5.4" fill="#69C9D0" transform="translate(-1.5, 1.5)"/>
  <!-- shadow red -->
  <path d="M20.5 4.5h5.8v20.1a5.4 5.4 0 005.4 5.4 5.4 5.4 0 005.4-5.4v-3a13.7 13.7 0 003.9.6V16a9 9 0 01-4.2-1.1V28.5a11.2 11.2 0 01-11.2 11.2A11.2 11.2 0 0114.4 28.5a11.2 11.2 0 019.9-11.1v6.1a5.4 5.4 0 00-4.1 5.1 5.4 5.4 0 005.4 5.4" fill="#EE1D52" transform="translate(1.5, -1.5)"/>
  <!-- white main -->
  <path d="M20.5 4.5h5.8v20.1a5.4 5.4 0 005.4 5.4 5.4 5.4 0 005.4-5.4v-3a13.7 13.7 0 003.9.6V16a9 9 0 01-4.2-1.1V28.5a11.2 11.2 0 01-11.2 11.2A11.2 11.2 0 0114.4 28.5a11.2 11.2 0 019.9-11.1v6.1a5.4 5.4 0 00-4.1 5.1 5.4 5.4 0 005.4 5.4" fill="white"/>
</svg>
